<svg
   viewBox="0 0 60 60"
   style="fill:#000000;fill-opacity:1;fill-rule:nonzero"
   version="1.1"
   id="svg3"
   xmlns="http://www.w3.org/2000/svg"
   xmlns:svg="http://www.w3.org/2000/svg">
  <path
     d="m 37.734969,53.20302 h -9.668 c 0.009,-5.643 -2.232,-11.058 -6.227,-15.043 -3.99,-3.989 -9.400999,-6.229 -15.0429994,-6.227 v -9.668 c 8.2070004,-0.008 16.0799994,3.251 21.8789994,9.059 5.81,5.797 9.071,13.671 9.059,21.879 z" />
  <path
     d="m 20.331969,46.48402 c -0.023,3.223 -2.317,5.983 -5.482999,6.595 -3.165,0.612 -6.3220004,-1.094 -7.5450004,-4.077 -1.223,-2.983 -0.172,-6.414 2.512,-8.201 2.6830004,-1.786 6.2550004,-1.431 8.5339994,0.849 1.281,1.281 1.995,3.022 1.982,4.834 z" />
  <path
     d="m 53.202969,53.20302 h -9.637 c 0.012,-9.746 -3.848,-19.095 -10.726,-25.978 -6.863,-6.897 -16.181,-10.769001 -25.8959994,-10.760001 h -0.147 V 6.7970194 h 0.147 c 12.2719994,-0.016 24.0429994,4.8759996 32.7089994,13.5930006 8.692,8.691 13.57,20.501 13.55,32.813 z" />
</svg>
