<?xml version="1.0" encoding="UTF-8" standalone="no"?>
<svg
   version="1.1"
   viewBox="0 0 24.340781 24.340781"
   id="svg28"
   xmlns:xlink="http://www.w3.org/1999/xlink"
   xmlns="http://www.w3.org/2000/svg"
   xmlns:svg="http://www.w3.org/2000/svg">
  <defs
     id="defs32">
    <linearGradient
       id="linearGradient870">
      <stop
         style="stop-color:#ca153e;stop-opacity:1"
         offset="0"
         id="stop866" />
      <stop
         style="stop-color:#e93c17;stop-opacity:0.97402596"
         offset="1"
         id="stop868" />
    </linearGradient>
    <linearGradient
       y2="0"
       x2="16"
       y1="16"
       x1="0"
       gradientUnits="userSpaceOnUse"
       id="linearGradient854"
       xlink:href="#linearGradient870"
       gradientTransform="matrix(1.52,0,0,1.52,0,-0.00296876)" />
  </defs>
  <rect
     style="fill:#ffffff;stroke-width:3.04;stroke-linecap:round;stroke-linejoin:round;stroke-miterlimit:74.7;fill-opacity:1"
     id="rect1"
     width="22.799999"
     height="19.76"
     x="0.75999999"
     y="2.28"
     ry="0" />
  <path
     style="fill:url(#linearGradient854);fill-opacity:1;stroke:none;stroke-width:0.76;stroke-linecap:round;stroke-miterlimit:4;stroke-dasharray:none;stroke-opacity:1"
     d="M 3.0429687,0 C 1.3705456,0 0,1.3704425 0,3.0429687 V 21.297813 c 0,0.700755 0.24167532,1.348352 0.64421874,1.864374 0.55820846,0.715631 1.42707206,1.178594 2.39874996,1.178594 H 21.297813 c 1.672421,0 3.042968,-1.370442 3.042968,-3.042968 V 3.0429687 c 0,-0.6732073 -0.222219,-1.2963451 -0.596718,-1.8020312 v -0.00297 c -0.003,-0.00403 -0.0052,-0.00786 -0.009,-0.011876 -0.0099,-0.013232 -0.01934,-0.025952 -0.02969,-0.038594 -0.007,-0.00858 -0.01383,-0.018098 -0.02078,-0.026719 -0.0207,-0.026452 -0.04362,-0.051654 -0.06531,-0.077188 C 23.059943,0.42229819 22.225765,0 21.297813,0 Z M 15.2,3.0370312 v 4.56 h 3.04 v 3.0399998 l 4.580781,0.01187 -0.02078,3.02813 h -4.56 v 3.04 H 15.2 l 0.01186,4.580782 -3.05186,-0.02078 v -6.08 H 9.12 L 9.12891,18.254844 6.08,18.237031 v -4.56 H 1.52 v -3.04 H 6.08 L 6.0859374,6.0829687 9.12,6.0770312 v 3.04 l 3.051875,0.00891 V 3.0429687 Z"
     id="rect826" />
</svg>
